<svg width="82.626" height="82.627" xmlns="http://www.w3.org/2000/svg" xml:space="preserve" version="1.1">
 <g>
  <title>Layer 1</title>
  <g id="svg_1" transform="rotate(180, 41.3135, 41.195)">
   <path id="svg_2" d="m5.206,62.36399l0.199,-42.39232c0.003,-0.54513 0.306,-1.04467 0.789,-1.30237l34.161,-17.72863c0.223,-0.11795 0.467,-0.17742 0.711,-0.17742c0.001,0 0.002,0 0.003,0c0.103,-0.11596 0.218,-0.22499 0.355,-0.30626c0.236,-0.13975 0.502,-0.21012 0.769,-0.21012c0.246,0 0.49,0.06046 0.712,0.1794l33.729,18.13005c0.484,0.26067 0.787,0.76318 0.787,1.30732l0,44.10601c0,0.01288 -0.005,0.02478 -0.005,0.03865c-0.001,0.0109 0.003,0.02081 0.003,0.03271c-0.002,0.04262 -0.019,0.08127 -0.022,0.1229c-0.013,0.08127 -0.022,0.16255 -0.047,0.24085c-0.018,0.05451 -0.041,0.10308 -0.064,0.15561c-0.031,0.06938 -0.062,0.13777 -0.104,0.2012c-0.031,0.04956 -0.068,0.09416 -0.105,0.13975c-0.047,0.05749 -0.096,0.11101 -0.152,0.16156c-0.044,0.03965 -0.091,0.07533 -0.141,0.11002c-0.032,0.02181 -0.059,0.05253 -0.094,0.07235c-0.032,0.01982 -0.069,0.02775 -0.104,0.0446c-0.029,0.01487 -0.052,0.03568 -0.081,0.04857l-34.758,16.68793c-0.405,0.16949 -0.864,0.15363 -1.258,-0.04163l-34.358,-17.75242c-0.504,-0.25175 -0.822,-0.76318 -0.825,-1.3212c0,-0.00892 0.004,-0.01685 0.004,-0.02478c-0.061,-0.16552 -0.105,-0.33996 -0.104,-0.52233zm67.25,1.44212l-30.28,-16.78011l-32.065,15.86429l31.107,16.12991l31.238,-15.2141l0,0.00001zm-28.764,-59.57681l0,40.22964l30.729,17.02096l0,-40.7262l-30.729,-16.52439l0,-0.00001z"/>
  </g>
  <g id="svg_3"/>
  <g id="svg_4"/>
  <g id="svg_5"/>
  <g id="svg_6"/>
  <g id="svg_7"/>
  <g id="svg_8"/>
  <g id="svg_9"/>
  <g id="svg_10"/>
  <g id="svg_11"/>
  <g id="svg_12"/>
  <g id="svg_13"/>
  <g id="svg_14"/>
  <g id="svg_15"/>
  <g id="svg_16"/>
  <g id="svg_17" transform="rotate(180)"/>
 </g>

</svg>